<?xml version="1.0" standalone="no"?>
<!DOCTYPE svg PUBLIC "-//W3C//DTD SVG 20010904//EN"
 "http://www.w3.org/TR/2001/REC-SVG-20010904/DTD/svg10.dtd">
<svg version="1.0" xmlns="http://www.w3.org/2000/svg"
 width="838.000000pt" height="778.000000pt" viewBox="0 0 838.000000 778.000000"
 preserveAspectRatio="xMidYMid meet">
<metadata>
Created by potrace 1.15, written by Peter Selinger 2001-2017
</metadata>
<g transform="translate(0.000000,778.000000) scale(0.100000,-0.100000)"
fill="#000000" stroke="none">
<path d="M4130 7379 c0 -5 -4 -8 -10 -4 -16 10 -89 -65 -101 -104 -11 -38 -9
-123 5 -152 5 -12 0 -18 -22 -22 -20 -4 -36 -18 -50 -41 -27 -46 -59 -65 -132
-79 l-61 -12 3 -60 3 -60 83 -3 82 -3 0 -112 c0 -124 5 -137 55 -137 32 -1
-11 -21 -390 -181 -104 -45 -284 -121 -400 -171 -115 -50 -262 -112 -327 -139
-129 -53 -633 -268 -773 -330 -108 -47 -169 -51 -255 -16 -57 24 -166 93 -189
121 -7 9 -23 16 -34 16 -18 0 -19 -5 -14 -62 4 -46 16 -84 45 -140 39 -76 39
-78 18 -84 -22 -7 -203 -83 -391 -164 -110 -47 -286 -103 -358 -113 -88 -13
-115 35 -53 96 41 42 121 86 230 128 79 30 103 47 88 60 -4 4 -59 23 -122 43
-273 86 -471 88 -566 4 -49 -43 -64 -78 -64 -145 0 -72 44 -170 114 -257 26
-32 46 -60 43 -62 -10 -10 -170 -35 -260 -41 -53 -3 -97 -10 -97 -14 0 -26
161 -91 280 -113 165 -32 284 -18 436 50 l104 46 95 -51 c53 -28 100 -51 105
-51 23 0 140 83 140 99 0 10 -23 31 -60 52 -33 18 -60 36 -60 40 0 3 21 13 48
22 36 13 80 17 190 17 l142 0 0 -145 0 -145 -312 -2 -313 -3 0 -175 0 -175
271 -3 272 -2 -14 -47 c-21 -71 -17 -149 11 -218 14 -33 25 -61 25 -62 0 -1
-46 -4 -102 -5 l-103 -3 -3 -1547 -2 -1547 -47 -3 -47 -3 -1 -65 0 -65 -35 -5
-35 -5 -3 -182 -2 -183 555 0 555 0 0 185 0 185 -35 0 -34 0 -3 68 -3 67 -47
3 -48 3 0 1550 0 1549 -104 0 -104 0 24 58 c28 68 33 182 10 237 l-15 35 2229
0 2228 0 -14 -47 c-25 -81 -16 -159 30 -265 7 -16 -2 -18 -96 -20 l-103 -3 -3
-1547 -2 -1547 -48 -3 -47 -3 -3 -67 -3 -68 -34 0 -35 0 0 -185 0 -185 555 0
555 0 0 185 0 185 -35 0 -34 0 -3 68 -3 67 -47 3 -48 3 0 1550 0 1549 -105 0
-105 0 22 43 c18 34 22 58 23 132 0 50 -4 105 -8 123 l-9 32 249 0 248 0 0
102 c0 57 2 137 5 178 l5 75 -298 3 -298 2 3 143 3 142 133 3 c131 3 191 -5
225 -31 16 -11 12 -16 -42 -47 -35 -20 -61 -42 -61 -51 0 -10 29 -34 69 -58
l69 -42 101 50 101 51 122 -52 123 -53 135 0 c116 1 149 5 231 28 53 15 116
36 141 47 45 19 76 46 66 55 -3 3 -45 7 -94 9 -49 2 -131 12 -181 21 l-93 17
45 50 c105 117 153 281 106 365 -59 104 -219 138 -440 93 -130 -26 -285 -80
-289 -101 -2 -11 24 -26 95 -53 170 -66 257 -131 251 -185 -3 -26 -4 -26 -83
-25 -98 1 -215 39 -475 153 -96 42 -202 88 -236 101 l-61 23 28 46 c31 50 59
145 59 198 0 45 -21 43 -76 -6 -74 -65 -177 -113 -253 -119 -74 -5 -5 -31
-706 268 -407 173 -862 367 -1143 486 -214 91 -230 99 -193 102 l41 3 0 124 0
124 88 3 87 3 3 61 3 61 -52 6 c-66 8 -107 33 -143 86 -25 38 -31 41 -57 36
-34 -8 -34 -8 -14 38 18 42 19 104 4 144 -13 34 -55 80 -91 99 -32 16 -148 19
-148 3z m-80 -1479 l0 -500 -365 0 -365 0 0 343 0 343 83 33 c74 30 126 53
225 97 17 7 49 21 70 30 20 9 50 23 65 30 16 8 33 14 37 14 8 0 88 35 205 90
22 10 41 19 43 19 1 1 2 -224 2 -499z m405 442 c80 -35 269 -115 379 -161 22
-9 92 -39 155 -67 l116 -51 3 -332 2 -331 -385 0 -385 0 0 496 c0 393 3 495
13 491 6 -3 53 -23 102 -45z m-1355 -647 l0 -295 -370 2 -370 3 -2 134 -3 134
205 87 c113 48 279 119 370 158 91 39 166 71 168 71 1 1 2 -132 2 -294z m2560
135 c133 -56 148 -63 250 -108 36 -16 73 -32 83 -35 15 -6 17 -22 17 -147 l0
-140 -340 0 -340 0 0 284 0 285 103 -43 c56 -24 158 -67 227 -96z m-3518 -422
c-5 -5 -102 -7 -217 -6 l-208 3 199 83 c109 45 206 87 214 92 13 8 15 -3 18
-77 2 -47 -1 -90 -6 -95z m4313 82 l210 -89 -217 -1 -218 0 0 90 c0 50 3 90 8
90 4 0 102 -40 217 -90z m45 -385 l0 -145 -2310 0 -2310 0 0 138 c0 76 3 142
7 145 3 4 1043 7 2310 7 l2303 0 0 -145z"/>
<path d="M4226 4526 c6 -15 4 -17 -6 -11 -8 5 -11 4 -6 -3 3 -5 -78 -149 -180
-319 -188 -311 -372 -616 -774 -1280 -121 -200 -216 -363 -212 -363 4 0 0 -5
-8 -11 -12 -9 -11 -9 5 -2 11 4 547 9 1190 10 644 2 1176 5 1182 8 9 3 -6 35
-44 97 -31 51 -167 275 -301 498 -135 223 -302 500 -372 615 -69 116 -200 332
-289 480 -152 252 -204 331 -185 281z m53 -226 c11 -19 26 -46 33 -60 15 -31
100 -163 110 -170 4 -3 17 -28 29 -55 12 -26 30 -58 40 -69 11 -11 19 -23 19
-28 0 -4 16 -30 35 -57 19 -26 35 -53 35 -58 0 -6 7 -16 16 -24 8 -7 27 -35
41 -63 14 -28 31 -55 38 -61 7 -5 19 -25 26 -42 8 -18 17 -33 21 -33 5 0 8 -7
8 -15 0 -8 8 -23 18 -33 27 -29 92 -144 92 -164 0 -6 12 -25 28 -43 15 -18 36
-45 47 -60 11 -16 25 -33 30 -39 6 -7 23 -36 39 -66 16 -30 53 -92 83 -137 29
-44 53 -86 53 -92 0 -6 4 -11 9 -11 5 0 16 -17 24 -38 8 -21 22 -44 31 -51 9
-8 16 -19 16 -25 0 -6 11 -24 25 -40 14 -16 25 -34 25 -40 0 -7 9 -19 20 -29
11 -9 20 -23 20 -31 0 -8 17 -29 38 -46 20 -18 33 -30 27 -28 -5 2 -32 14 -59
26 l-49 23 -1033 -1 c-569 0 -1034 2 -1034 5 0 11 44 80 58 91 8 6 12 16 8 22
-3 5 -2 12 2 14 7 3 72 95 97 136 5 9 26 43 47 75 21 32 38 64 38 72 0 8 4 15
8 15 5 0 21 22 35 49 15 27 34 54 42 61 8 7 12 16 9 21 -3 5 -1 9 5 9 6 0 23
26 37 58 15 31 30 59 34 62 18 15 50 71 45 80 -3 5 -1 10 5 10 6 0 15 10 20
23 5 12 25 44 44 71 20 27 36 53 36 58 0 5 5 14 10 21 12 14 96 141 102 154
13 28 51 83 59 83 5 0 9 11 9 25 0 14 11 34 25 47 14 12 25 28 25 35 0 16 45
88 61 98 6 4 16 19 22 34 7 14 48 86 92 159 85 143 83 141 124 72z"/>
<path d="M2620 2335 c0 -13 187 -15 1620 -15 1433 0 1620 2 1620 15 0 13 -187
15 -1620 15 -1433 0 -1620 -2 -1620 -15z"/>
<path d="M3985 2226 c-55 -30 -80 -75 -76 -131 2 -26 62 -79 92 -82 89 -7 227
-22 240 -25 26 -6 49 -29 49 -47 0 -22 -22 -52 -40 -54 -8 -2 -22 -7 -30 -12
-21 -13 -174 -9 -178 4 -2 6 -7 9 -12 6 -4 -3 -29 4 -55 15 -45 19 -48 20 -61
3 -21 -28 -17 -39 19 -56 67 -32 89 -36 196 -38 98 -1 115 1 153 22 88 49 100
151 22 199 -23 15 -57 24 -102 27 -37 3 -74 9 -82 13 -8 4 -32 6 -54 5 -47 -3
-96 20 -96 45 0 16 14 32 30 36 3 0 18 6 33 12 42 18 101 15 185 -9 l75 -21
21 22 c21 21 21 21 1 33 -11 6 -36 18 -55 25 -45 18 -247 24 -275 8z"/>
<path d="M5497 2228 c2 -5 0 -8 -6 -8 -5 0 -26 -15 -45 -34 -28 -26 -36 -41
-36 -68 0 -38 32 -88 56 -88 8 0 14 -4 14 -10 0 -5 7 -7 15 -4 8 4 15 2 15 -2
0 -5 17 -9 38 -10 221 -3 273 -24 232 -91 -26 -44 -87 -56 -210 -42 -8 1 -21
6 -27 12 -7 5 -13 7 -13 4 0 -4 -21 3 -47 14 l-48 20 -17 -21 c-23 -29 -17
-37 51 -67 48 -22 71 -25 166 -26 96 0 115 3 149 22 58 33 75 59 76 112 0 72
-56 114 -159 118 -30 1 -62 6 -70 10 -9 5 -36 7 -61 6 -78 -5 -119 46 -66 80
28 19 126 31 153 20 10 -4 30 -9 45 -10 16 -1 38 -9 51 -17 15 -10 29 -13 45
-7 26 10 42 41 24 47 -7 2 -19 10 -27 18 -8 8 -17 15 -20 14 -25 -1 -35 1 -31
8 2 4 -53 7 -124 7 -70 0 -126 -3 -123 -7z"/>
<path d="M2647 2223 c-4 -3 -7 -98 -7 -210 l0 -203 220 0 220 0 0 35 0 35
-185 0 -186 0 3 58 3 57 115 5 115 5 3 33 3 34 -120 -4 -121 -3 1 53 2 52 178
0 c187 0 196 2 165 43 -12 15 -34 17 -208 17 -107 0 -198 -3 -201 -7z"/>
<path d="M3257 2223 c-4 -3 -7 -98 -7 -210 l0 -203 24 0 c51 0 51 -1 49 178
l-2 167 30 -35 c37 -43 109 -121 211 -228 68 -72 82 -82 112 -82 19 0 38 5 41
10 10 16 7 392 -4 403 -5 5 -19 7 -32 5 l-24 -3 -3 -169 -2 -169 -74 79 c-137
148 -156 169 -161 187 -4 9 -11 17 -17 17 -6 0 -24 14 -40 30 -20 22 -38 30
-61 30 -19 0 -37 -3 -40 -7z"/>
<path d="M4550 2228 c-1 -4 -1 -391 -1 -405 1 -8 14 -13 31 -13 l30 0 -2 208
-3 207 -27 3 c-16 2 -28 2 -28 0z"/>
<path d="M4969 2202 c-33 -58 -199 -380 -199 -386 0 -3 15 -6 33 -6 30 0 36 5
57 50 l24 51 140 -3 141 -3 25 -47 c22 -42 29 -48 58 -48 17 0 32 3 32 6 0 3
-23 49 -51 103 -28 53 -74 139 -102 191 -64 121 -63 120 -106 120 -29 0 -39
-6 -52 -28z m111 -132 l50 -100 -105 0 c-58 0 -105 2 -105 5 0 2 9 20 20 40
11 20 34 63 50 95 17 33 32 60 35 60 3 0 27 -45 55 -100z"/>
<path d="M2620 1725 c0 -13 187 -15 1620 -15 1433 0 1620 2 1620 15 0 13 -187
15 -1620 15 -1433 0 -1620 -2 -1620 -15z"/>
</g>
</svg>
